<mxfile host="app.diagrams.net" modified="2022-09-01T09:01:53.463Z" agent="5.0 (Windows NT 10.0; Win64; x64) AppleWebKit/537.36 (KHTML, like Gecko) Chrome/104.0.5112.102 Safari/537.36 Edg/104.0.1293.70" etag="QI7ny958I46LffxW-Ljb" version="20.2.3" type="github">
  <diagram id="vLA9LeoyK69H0D3SBOnJ" name="第 1 页">
    <mxGraphModel dx="2426" dy="1358" grid="1" gridSize="10" guides="1" tooltips="1" connect="1" arrows="1" fold="1" page="1" pageScale="1" pageWidth="827" pageHeight="1169" math="0" shadow="0">
      <root>
        <mxCell id="0" />
        <mxCell id="1" parent="0" />
        <mxCell id="GQrafldYf7m0Gzl4z0rZ-15" value="" style="edgeStyle=orthogonalEdgeStyle;rounded=0;orthogonalLoop=1;jettySize=auto;html=1;fontSize=16;" edge="1" parent="1" source="GQrafldYf7m0Gzl4z0rZ-1" target="GQrafldYf7m0Gzl4z0rZ-14">
          <mxGeometry relative="1" as="geometry" />
        </mxCell>
        <mxCell id="GQrafldYf7m0Gzl4z0rZ-1" value="&lt;font style=&quot;font-size: 16px;&quot;&gt;激光预处理&lt;br&gt;（时空同步，坐标转换）&lt;/font&gt;" style="rounded=1;whiteSpace=wrap;html=1;fontSize=16;" vertex="1" parent="1">
          <mxGeometry x="360" y="110" width="180" height="60" as="geometry" />
        </mxCell>
        <mxCell id="GQrafldYf7m0Gzl4z0rZ-6" style="edgeStyle=orthogonalEdgeStyle;rounded=0;orthogonalLoop=1;jettySize=auto;html=1;entryX=0.25;entryY=0;entryDx=0;entryDy=0;fontSize=16;" edge="1" parent="1" source="GQrafldYf7m0Gzl4z0rZ-2">
          <mxGeometry relative="1" as="geometry">
            <mxPoint x="385" y="110" as="targetPoint" />
            <Array as="points">
              <mxPoint x="310" y="70" />
              <mxPoint x="385" y="70" />
            </Array>
          </mxGeometry>
        </mxCell>
        <mxCell id="GQrafldYf7m0Gzl4z0rZ-2" value="lidar_0" style="text;html=1;strokeColor=none;fillColor=none;align=center;verticalAlign=middle;whiteSpace=wrap;rounded=0;fontSize=16;" vertex="1" parent="1">
          <mxGeometry x="280" y="10" width="60" height="30" as="geometry" />
        </mxCell>
        <mxCell id="GQrafldYf7m0Gzl4z0rZ-7" style="edgeStyle=orthogonalEdgeStyle;rounded=0;orthogonalLoop=1;jettySize=auto;html=1;fontSize=16;" edge="1" parent="1" source="GQrafldYf7m0Gzl4z0rZ-3">
          <mxGeometry relative="1" as="geometry">
            <mxPoint x="430" y="110" as="targetPoint" />
          </mxGeometry>
        </mxCell>
        <mxCell id="GQrafldYf7m0Gzl4z0rZ-3" value="lidar_1" style="text;html=1;strokeColor=none;fillColor=none;align=center;verticalAlign=middle;whiteSpace=wrap;rounded=0;fontSize=16;" vertex="1" parent="1">
          <mxGeometry x="370" y="10" width="60" height="30" as="geometry" />
        </mxCell>
        <mxCell id="GQrafldYf7m0Gzl4z0rZ-10" style="edgeStyle=orthogonalEdgeStyle;rounded=0;orthogonalLoop=1;jettySize=auto;html=1;entryX=0.683;entryY=0;entryDx=0;entryDy=0;entryPerimeter=0;fontSize=16;" edge="1" parent="1" source="GQrafldYf7m0Gzl4z0rZ-4">
          <mxGeometry relative="1" as="geometry">
            <mxPoint x="462.94000000000005" y="110" as="targetPoint" />
          </mxGeometry>
        </mxCell>
        <mxCell id="GQrafldYf7m0Gzl4z0rZ-4" value="lidar_2" style="text;html=1;strokeColor=none;fillColor=none;align=center;verticalAlign=middle;whiteSpace=wrap;rounded=0;fontSize=16;" vertex="1" parent="1">
          <mxGeometry x="460" y="10" width="60" height="30" as="geometry" />
        </mxCell>
        <mxCell id="GQrafldYf7m0Gzl4z0rZ-11" style="edgeStyle=orthogonalEdgeStyle;rounded=0;orthogonalLoop=1;jettySize=auto;html=1;entryX=0.939;entryY=-0.017;entryDx=0;entryDy=0;entryPerimeter=0;fontSize=16;exitX=0.5;exitY=1;exitDx=0;exitDy=0;" edge="1" parent="1" source="GQrafldYf7m0Gzl4z0rZ-5">
          <mxGeometry relative="1" as="geometry">
            <mxPoint x="509.02" y="108.98000000000002" as="targetPoint" />
            <Array as="points">
              <mxPoint x="580" y="70" />
              <mxPoint x="509" y="70" />
            </Array>
          </mxGeometry>
        </mxCell>
        <mxCell id="GQrafldYf7m0Gzl4z0rZ-5" value="lidar_N" style="text;html=1;strokeColor=none;fillColor=none;align=center;verticalAlign=middle;whiteSpace=wrap;rounded=0;fontSize=16;" vertex="1" parent="1">
          <mxGeometry x="550" y="10" width="60" height="30" as="geometry" />
        </mxCell>
        <mxCell id="GQrafldYf7m0Gzl4z0rZ-18" value="" style="edgeStyle=orthogonalEdgeStyle;rounded=0;orthogonalLoop=1;jettySize=auto;html=1;fontSize=16;" edge="1" parent="1" source="GQrafldYf7m0Gzl4z0rZ-12" target="GQrafldYf7m0Gzl4z0rZ-17">
          <mxGeometry relative="1" as="geometry" />
        </mxCell>
        <mxCell id="GQrafldYf7m0Gzl4z0rZ-12" value="PoseExtrapolator推导位姿" style="rounded=1;whiteSpace=wrap;html=1;fontSize=16;" vertex="1" parent="1">
          <mxGeometry x="370" y="350" width="160" height="60" as="geometry" />
        </mxCell>
        <mxCell id="GQrafldYf7m0Gzl4z0rZ-16" value="" style="edgeStyle=orthogonalEdgeStyle;rounded=0;orthogonalLoop=1;jettySize=auto;html=1;fontSize=16;" edge="1" parent="1" source="GQrafldYf7m0Gzl4z0rZ-14" target="GQrafldYf7m0Gzl4z0rZ-12">
          <mxGeometry relative="1" as="geometry" />
        </mxCell>
        <mxCell id="GQrafldYf7m0Gzl4z0rZ-14" value="激光去畸变" style="rounded=1;whiteSpace=wrap;html=1;fontSize=16;dashed=1;" vertex="1" parent="1">
          <mxGeometry x="390" y="230" width="120" height="60" as="geometry" />
        </mxCell>
        <mxCell id="GQrafldYf7m0Gzl4z0rZ-20" value="" style="edgeStyle=orthogonalEdgeStyle;rounded=0;orthogonalLoop=1;jettySize=auto;html=1;fontSize=16;" edge="1" parent="1" source="GQrafldYf7m0Gzl4z0rZ-17" target="GQrafldYf7m0Gzl4z0rZ-19">
          <mxGeometry relative="1" as="geometry" />
        </mxCell>
        <mxCell id="GQrafldYf7m0Gzl4z0rZ-17" value="粒子更新&amp;amp;权重计算&amp;amp;重采样" style="rounded=1;whiteSpace=wrap;html=1;fontSize=16;" vertex="1" parent="1">
          <mxGeometry x="390" y="470" width="120" height="60" as="geometry" />
        </mxCell>
        <mxCell id="GQrafldYf7m0Gzl4z0rZ-24" value="" style="edgeStyle=orthogonalEdgeStyle;rounded=0;orthogonalLoop=1;jettySize=auto;html=1;fontSize=16;" edge="1" parent="1" source="GQrafldYf7m0Gzl4z0rZ-19" target="GQrafldYf7m0Gzl4z0rZ-23">
          <mxGeometry relative="1" as="geometry" />
        </mxCell>
        <mxCell id="GQrafldYf7m0Gzl4z0rZ-19" value="粒子聚类&amp;amp;位姿输出" style="rounded=1;whiteSpace=wrap;html=1;fontSize=16;" vertex="1" parent="1">
          <mxGeometry x="390" y="590" width="120" height="60" as="geometry" />
        </mxCell>
        <mxCell id="GQrafldYf7m0Gzl4z0rZ-26" value="Y" style="edgeStyle=orthogonalEdgeStyle;rounded=0;orthogonalLoop=1;jettySize=auto;html=1;fontSize=16;" edge="1" parent="1" source="GQrafldYf7m0Gzl4z0rZ-23" target="GQrafldYf7m0Gzl4z0rZ-25">
          <mxGeometry relative="1" as="geometry" />
        </mxCell>
        <mxCell id="GQrafldYf7m0Gzl4z0rZ-28" value="N" style="edgeStyle=orthogonalEdgeStyle;rounded=0;orthogonalLoop=1;jettySize=auto;html=1;fontSize=16;" edge="1" parent="1" source="GQrafldYf7m0Gzl4z0rZ-23" target="GQrafldYf7m0Gzl4z0rZ-27">
          <mxGeometry relative="1" as="geometry" />
        </mxCell>
        <mxCell id="GQrafldYf7m0Gzl4z0rZ-23" value="置信度&amp;gt;阈值？" style="rhombus;whiteSpace=wrap;html=1;fontSize=16;rounded=1;" vertex="1" parent="1">
          <mxGeometry x="360" y="710" width="180" height="80" as="geometry" />
        </mxCell>
        <mxCell id="GQrafldYf7m0Gzl4z0rZ-30" value="" style="edgeStyle=orthogonalEdgeStyle;rounded=0;orthogonalLoop=1;jettySize=auto;html=1;fontSize=16;" edge="1" parent="1" source="GQrafldYf7m0Gzl4z0rZ-25" target="GQrafldYf7m0Gzl4z0rZ-29">
          <mxGeometry relative="1" as="geometry" />
        </mxCell>
        <mxCell id="GQrafldYf7m0Gzl4z0rZ-25" value="采纳滤波结果" style="whiteSpace=wrap;html=1;fontSize=16;rounded=1;" vertex="1" parent="1">
          <mxGeometry x="390" y="850" width="120" height="60" as="geometry" />
        </mxCell>
        <mxCell id="GQrafldYf7m0Gzl4z0rZ-33" style="edgeStyle=orthogonalEdgeStyle;rounded=0;orthogonalLoop=1;jettySize=auto;html=1;entryX=1;entryY=0.5;entryDx=0;entryDy=0;fontSize=16;" edge="1" parent="1" source="GQrafldYf7m0Gzl4z0rZ-27" target="GQrafldYf7m0Gzl4z0rZ-31">
          <mxGeometry relative="1" as="geometry">
            <Array as="points">
              <mxPoint x="710" y="1100" />
            </Array>
          </mxGeometry>
        </mxCell>
        <mxCell id="GQrafldYf7m0Gzl4z0rZ-27" value="采用惯导结果&amp;amp;更新累计里程" style="whiteSpace=wrap;html=1;fontSize=16;rounded=1;" vertex="1" parent="1">
          <mxGeometry x="650" y="720" width="120" height="60" as="geometry" />
        </mxCell>
        <mxCell id="GQrafldYf7m0Gzl4z0rZ-32" value="" style="edgeStyle=orthogonalEdgeStyle;rounded=0;orthogonalLoop=1;jettySize=auto;html=1;fontSize=16;" edge="1" parent="1" source="GQrafldYf7m0Gzl4z0rZ-29" target="GQrafldYf7m0Gzl4z0rZ-31">
          <mxGeometry relative="1" as="geometry" />
        </mxCell>
        <mxCell id="GQrafldYf7m0Gzl4z0rZ-29" value="更新地图" style="whiteSpace=wrap;html=1;fontSize=16;rounded=1;" vertex="1" parent="1">
          <mxGeometry x="390" y="960" width="120" height="60" as="geometry" />
        </mxCell>
        <mxCell id="GQrafldYf7m0Gzl4z0rZ-31" value="输出结果" style="whiteSpace=wrap;html=1;fontSize=16;rounded=1;" vertex="1" parent="1">
          <mxGeometry x="390" y="1070" width="120" height="60" as="geometry" />
        </mxCell>
      </root>
    </mxGraphModel>
  </diagram>
</mxfile>
